<?xml version="1.0" encoding="UTF-8"?>
<svg width="40" height="80"  xmlns="http://www.w3.org/2000/svg" version="1.1"
 viewBox="0 0 60 120">
  <defs>
    <filter id="bolt-blur"
     color-interpolation-filters="sRGB">
    <!--  
     x="-0.153584"
     y="-0.028445"
     width="1.307167"
     height="1.05689"
     --> 
      <feGaussianBlur stdDeviation="2.833917"/>
       <!-- id="feGaussianBlur4" -->
    </filter>
  </defs>
  
  <g class="svg-bolt">
    <path class="bolt-blurred"
     fill="none"
     stroke="#ff00ff"
     stroke-width="3"
     stroke-miterlimit="4"
     filter="url(#bolt-blur)"
     d="m34.298191,-119.855835c-4.148222,0.626587 -2.02454,3.260864 -3.708912,4.94519c-0.99461,0.994629 -3.689249,1.844666 -4.94521,2.472595c-1.35067,0.675354 -8.160099,10.962891 -9.06621,12.775146c-0.80976,1.619507 1.277901,2.801514 0.4121,4.533081c-0.38422,0.768494 -0.93853,2.403503 -1.2363,3.296814c-1.04757,3.1427 -5.92144,1.952454 -6.59362,3.296814c-0.20245,0.404907 -1.62108,2.939392 -1.2363,3.708923c1.22199,2.44397 3.87895,11.296753 4.53311,11.950928c0.16057,0.160583 0,1.396912 0,1.648376c0,1.772766 1.65409,4.521729 0.8242,6.181519c-0.21871,0.437439 -1.56076,1.736084 -0.8242,2.472595c1.61324,1.613281 5.481251,-1.79248 6.593611,-1.236267c1.909208,0.95459 9.80583,3.545166 11.95092,2.472595c1.928139,-0.96405 1.67271,-3.102905 3.708908,-4.121033c0.898842,-0.449402 9.330631,3.635071 10.302521,4.121033c2.399792,1.19989 5.040512,-0.316772 7.005711,1.648376c0.243679,0.243713 0.064281,3.104004 0,3.296814c-0.806301,2.418884 -2.503681,5.007385 -3.29681,6.593628c-1.476681,2.953369 -1.4799,7.905029 -3.29681,11.538818c-2.65918,5.318359 6.264149,15.082458 3.29681,21.017151c-0.379589,0.759155 -4.326229,0.926819 -4.94521,1.236267c-3.243919,1.621948 -0.42625,6.607788 -2.472599,8.654114c-3.386082,3.386108 -7.088303,0.659485 -8.242023,1.236328c-1.277878,0.638916 -4.348518,2.700134 -4.945198,3.296814c-5.02606,5.026062 6.181511,4.918884 6.181511,8.242004c0,1.954651 -2.729052,4.221802 -3.708912,6.181519c-1.736439,3.472839 0.988651,11.291138 2.472599,12.775085c1.007652,1.00769 0.824211,8.044189 0.824211,10.302551c0,0.292847 1.621792,2.087097 0.8242,2.884705c-2.228897,2.228882 -8.158958,2.967773 -3.296808,7.829895c0.57255,0.572571 1.819139,0.170715 2.472609,0.824219c0.651291,0.651306 0.456081,1.736389 0.8242,2.472595c1.777882,3.555786 -0.02124,3.730164 -1.648411,5.3573c-0.685928,0.685913 -1.0448,2.582886 -2.472599,3.296814c-1.32906,0.664551 -3.963579,2.315186 -4.94521,3.296814c-1.477551,1.477539 2.771721,-0.598267 1.648411,1.648376c-0.815781,1.631592 -2.855961,2.357605 -3.29681,4.121033c-0.093531,0.374146 -0.71582,3.817322 -0.4121,4.121033c0.207199,0.207214 1.628799,1.275513 1.2363,2.060486c-1.152731,2.305542 -4.68042,4.00354 -5.769409,6.181519c-2.05294,4.105896 2.596889,8.817688 0.8242,12.362976c-0.62812,1.256287 -0.10668,5.87616 -0.8242,6.593567c-0.932131,0.932251 -2.88471,3.460693 -2.88471,4.945313c0,0.858398 1.85717,3.093384 2.472609,3.708984c0.901621,0.901611 0.480061,2.952515 1.236301,3.708862c1.0658,1.065796 5.318079,-3.33606 8.24202,-0.412109c1.353279,1.353271 5.508999,10.562866 6.593609,9.478271"
    />
    <!-- 
     id="path-bolt-blurred"
     stroke-dashoffset="0"
     -->
    <path class="bolt-sharp"
     fill="none"
     stroke="#ffffff"
     stroke-width="1"
     stroke-miterlimit="4"
     d="m34.298191,-119.855835c-4.148222,0.626587 -2.02454,3.260864 -3.708912,4.94519c-0.99461,0.994629 -3.689249,1.844666 -4.94521,2.472595c-1.35067,0.675354 -8.160099,10.962891 -9.06621,12.775146c-0.80976,1.619507 1.277901,2.801514 0.4121,4.533081c-0.38422,0.768494 -0.93853,2.403503 -1.2363,3.296814c-1.04757,3.1427 -5.92144,1.952454 -6.59362,3.296814c-0.20245,0.404907 -1.62108,2.939392 -1.2363,3.708923c1.22199,2.44397 3.87895,11.296753 4.53311,11.950928c0.16057,0.160583 0,1.396912 0,1.648376c0,1.772766 1.65409,4.521729 0.8242,6.181519c-0.21871,0.437439 -1.56076,1.736084 -0.8242,2.472595c1.61324,1.613281 5.481251,-1.79248 6.593611,-1.236267c1.909208,0.95459 9.80583,3.545166 11.95092,2.472595c1.928139,-0.96405 1.67271,-3.102905 3.708908,-4.121033c0.898842,-0.449402 9.330631,3.635071 10.302521,4.121033c2.399792,1.19989 5.040512,-0.316772 7.005711,1.648376c0.243679,0.243713 0.064281,3.104004 0,3.296814c-0.806301,2.418884 -2.503681,5.007385 -3.29681,6.593628c-1.476681,2.953369 -1.4799,7.905029 -3.29681,11.538818c-2.65918,5.318359 6.264149,15.082458 3.29681,21.017151c-0.379589,0.759155 -4.326229,0.926819 -4.94521,1.236267c-3.243919,1.621948 -0.42625,6.607788 -2.472599,8.654114c-3.386082,3.386108 -7.088303,0.659485 -8.242023,1.236328c-1.277878,0.638916 -4.348518,2.700134 -4.945198,3.296814c-5.02606,5.026062 6.181511,4.918884 6.181511,8.242004c0,1.954651 -2.729052,4.221802 -3.708912,6.181519c-1.736439,3.472839 0.988651,11.291138 2.472599,12.775085c1.007652,1.00769 0.824211,8.044189 0.824211,10.302551c0,0.292847 1.621792,2.087097 0.8242,2.884705c-2.228897,2.228882 -8.158958,2.967773 -3.296808,7.829895c0.57255,0.572571 1.819139,0.170715 2.472609,0.824219c0.651291,0.651306 0.456081,1.736389 0.8242,2.472595c1.777882,3.555786 -0.02124,3.730164 -1.648411,5.3573c-0.685928,0.685913 -1.0448,2.582886 -2.472599,3.296814c-1.32906,0.664551 -3.963579,2.315186 -4.94521,3.296814c-1.477551,1.477539 2.771721,-0.598267 1.648411,1.648376c-0.815781,1.631592 -2.855961,2.357605 -3.29681,4.121033c-0.093531,0.374146 -0.71582,3.817322 -0.4121,4.121033c0.207199,0.207214 1.628799,1.275513 1.2363,2.060486c-1.152731,2.305542 -4.68042,4.00354 -5.769409,6.181519c-2.05294,4.105896 2.596889,8.817688 0.8242,12.362976c-0.62812,1.256287 -0.10668,5.87616 -0.8242,6.593567c-0.932131,0.932251 -2.88471,3.460693 -2.88471,4.945313c0,0.858398 1.85717,3.093384 2.472609,3.708984c0.901621,0.901611 0.480061,2.952515 1.236301,3.708862c1.0658,1.065796 5.318079,-3.33606 8.24202,-0.412109c1.353279,1.353271 5.508999,10.562866 6.593609,9.478271"
    />
    <!--
     id="path-bolt-sharp"
     stroke-dashoffset="0"
     -->
    <animateTransform attributeName="transform"
     type="translate"
     from="0 0"
     to="0 120"
     begin="0s"
     dur="150ms"
     repeatCount="indefinite"/>
  </g>
  
  <!-- <animate xlink:href="#svg-bolt" ... /> -->
</svg>
