<?xml version="1.0" encoding="UTF-8" standalone="no"?>
<svg id="bolt-svg"
   xmlns="http://www.w3.org/2000/svg"
   xmlns:xlink="http://www.w3.org/1999/xlink"
   version="1.1"
   viewBox="0 0 60 120"
   height="120"
   width="60">
  <defs>
    <filter id="bolt-blur"
     height="1.05689"
     y="-0.028445005"
     width="1.3071673"
     x="-0.15358365"
     style="color-interpolation-filters:sRGB">
      <feGaussianBlur id="feGaussianBlur4"
         stdDeviation="2.8339169" />
    </filter>
  </defs>
  <g id="bolt"
     transform="translate(0,-932.36216)">
    <path class="bolt-blurred"
       id="path-bolt-blurred"
       d="m 34.298189,812.50634 c -4.148215,0.6266 -2.024535,3.26084 -3.708906,4.94521 -0.994608,0.99461 -3.68925,1.84462 -4.945211,2.4726 -1.350673,0.67534 -8.160096,10.96289 -9.066212,12.77512 -0.809758,1.61952 1.277905,2.8015 0.412098,4.53311 -0.384214,0.76844 -0.938524,2.40348 -1.2363,3.29681 -1.047566,3.14269 -5.9214344,1.95245 -6.5936128,3.29681 -0.2024507,0.40489 -1.6210803,2.93935 -1.2363033,3.7089 1.2219881,2.44397 3.8789521,11.29677 4.5331091,11.95092 0.160569,0.16057 0,1.39692 0,1.64841 0,1.77272 1.654088,4.52173 0.824203,6.18151 -0.218711,0.43741 -1.560758,1.73604 -0.824203,2.4726 1.613243,1.61324 5.481251,-1.79248 6.593612,-1.2363 1.909209,0.9546 9.805827,3.54515 11.950917,2.4726 1.928142,-0.96407 1.672712,-3.10291 3.708907,-4.12101 0.89884,-0.44942 9.330629,3.63507 10.30252,4.12101 2.39979,1.1999 5.040513,-0.31679 7.00571,1.6484 0.243683,0.24368 0.06428,3.10397 0,3.29681 -0.806292,2.41888 -2.503679,5.00736 -3.296806,6.59361 -1.476681,2.95337 -1.479902,7.90502 -3.296806,11.53882 -2.659181,5.31836 6.264149,15.08246 3.296806,21.01714 -0.379588,0.75917 -4.32623,0.92681 -4.945206,1.2363 -3.243927,1.62196 -0.426258,6.60777 -2.472604,8.65411 -3.386083,3.38608 -7.088298,0.65945 -8.242015,1.2363 -1.277888,0.63895 -4.348521,2.70012 -4.945207,3.29681 -5.02606,5.02606 6.181511,4.91892 6.181511,8.24201 0,1.95464 -2.729044,4.22179 -3.708907,6.18151 -1.736441,3.47289 0.988644,11.29117 2.472603,12.77512 1.007649,1.00766 0.824203,8.04417 0.824203,10.30252 0,0.29288 1.62179,2.08712 0.824199,2.88471 -2.228894,2.22889 -8.158959,2.96776 -3.296806,7.82991 0.572547,0.57255 1.819136,0.17073 2.472607,0.8242 0.651293,0.6513 0.456086,1.73638 0.824199,2.47261 1.777886,3.55576 -0.02124,3.73014 -1.648402,5.3573 -0.68593,0.68594 -1.044804,2.58291 -2.472603,3.29681 -1.329065,0.66454 -3.963586,2.31518 -4.945211,3.29681 -1.477547,1.47755 2.77172,-0.59823 1.648405,1.6484 -0.815778,1.63155 -2.855952,2.35759 -3.296806,4.12101 -0.09353,0.37413 -0.715822,3.81734 -0.412101,4.12104 0.207202,0.2072 1.628801,1.2755 1.236303,2.0605 -1.152731,2.3055 -4.680417,4.0035 -5.76941,6.1815 -2.052943,4.1059 2.596884,8.8177 0.8242,12.363 -0.628122,1.2563 -0.106686,5.8761 -0.8242,6.5936 -0.932136,0.9322 -2.884708,3.4607 -2.884708,4.9453 0,0.8584 1.857165,3.0934 2.472604,3.7089 0.901624,0.9016 0.480064,2.9526 1.236304,3.7089 1.065799,1.0658 5.318081,-3.3361 8.242016,-0.4121 1.353285,1.3533 5.509,10.5629 6.593609,9.4783"
       style="fill:none;stroke:#ff00ff;stroke-width:3;stroke-linejoin:miter;stroke-miterlimit:4;stroke-dasharray:none;stroke-dashoffset:0;stroke-opacity:1;filter:url(#bolt-blur)"  />
    <path class="bolt-sharp"
       id="path-bolt-sharp"
       d="m 34.298189,812.50634 c -4.148215,0.6266 -2.024535,3.26084 -3.708906,4.94521 -0.994608,0.99461 -3.68925,1.84462 -4.945211,2.4726 -1.350673,0.67534 -8.160096,10.96289 -9.066212,12.77512 -0.809758,1.61952 1.277905,2.8015 0.412098,4.53311 -0.384214,0.76844 -0.938524,2.40348 -1.2363,3.29681 -1.047566,3.14269 -5.9214344,1.95245 -6.5936128,3.29681 -0.2024507,0.40489 -1.6210803,2.93935 -1.2363033,3.7089 1.2219881,2.44397 3.8789521,11.29677 4.5331091,11.95092 0.160569,0.16057 0,1.39692 0,1.64841 0,1.77272 1.654088,4.52173 0.824203,6.18151 -0.218711,0.43741 -1.560758,1.73604 -0.824203,2.4726 1.613243,1.61324 5.481251,-1.79248 6.593612,-1.2363 1.909209,0.9546 9.805827,3.54515 11.950917,2.4726 1.928142,-0.96407 1.672712,-3.10291 3.708907,-4.12101 0.89884,-0.44942 9.330629,3.63507 10.30252,4.12101 2.39979,1.1999 5.040513,-0.31679 7.00571,1.6484 0.243683,0.24368 0.06428,3.10397 0,3.29681 -0.806292,2.41888 -2.503679,5.00736 -3.296806,6.59361 -1.476681,2.95337 -1.479902,7.90502 -3.296806,11.53882 -2.659181,5.31836 6.264149,15.08246 3.296806,21.01714 -0.379588,0.75917 -4.32623,0.92681 -4.945206,1.2363 -3.243927,1.62196 -0.426258,6.60777 -2.472604,8.65411 -3.386083,3.38608 -7.088298,0.65945 -8.242015,1.2363 -1.277888,0.63895 -4.348521,2.70012 -4.945207,3.29681 -5.02606,5.02606 6.181511,4.91892 6.181511,8.24201 0,1.95464 -2.729044,4.22179 -3.708907,6.18151 -1.736441,3.47289 0.988644,11.29117 2.472603,12.77512 1.007649,1.00766 0.824203,8.04417 0.824203,10.30252 0,0.29288 1.62179,2.08712 0.824199,2.88471 -2.228894,2.22889 -8.158959,2.96776 -3.296806,7.82991 0.572547,0.57255 1.819136,0.17073 2.472607,0.8242 0.651293,0.6513 0.456086,1.73638 0.824199,2.47261 1.777886,3.55576 -0.02124,3.73014 -1.648402,5.3573 -0.68593,0.68594 -1.044804,2.58291 -2.472603,3.29681 -1.329065,0.66454 -3.963586,2.31518 -4.945211,3.29681 -1.477547,1.47755 2.77172,-0.59823 1.648405,1.6484 -0.815778,1.63155 -2.855952,2.35759 -3.296806,4.12101 -0.09353,0.37413 -0.715822,3.81734 -0.412101,4.12104 0.207202,0.2072 1.628801,1.2755 1.236303,2.0605 -1.152731,2.3055 -4.680417,4.0035 -5.76941,6.1815 -2.052943,4.1059 2.596884,8.8177 0.8242,12.363 -0.628122,1.2563 -0.106686,5.8761 -0.8242,6.5936 -0.932136,0.9322 -2.884708,3.4607 -2.884708,4.9453 0,0.8584 1.857165,3.0934 2.472604,3.7089 0.901624,0.9016 0.480064,2.9526 1.236304,3.7089 1.065799,1.0658 5.318081,-3.3361 8.242016,-0.4121 1.353285,1.3533 5.509,10.5629 6.593609,9.4783"
       style="fill:none;stroke:#ffffff;stroke-width:1;stroke-linejoin:miter;stroke-miterlimit:4;stroke-dasharray:none;stroke-dashoffset:0;stroke-opacity:1" />
  </g>
</svg>
